<?xml version="1.0" encoding="utf-8"?>
<!-- Generator: Adobe Illustrator 26.0.3, SVG Export Plug-In . SVG Version: 6.00 Build 0)  -->
<svg version="1.1" id="Layer_1" xmlns="http://www.w3.org/2000/svg" xmlns:xlink="http://www.w3.org/1999/xlink" x="0px" y="0px"
	 viewBox="0 0 440 140" style="enable-background:new 0 0 440 140;" xml:space="preserve">
<g>
	<rect x="361.1" y="125.9" width="78.9" height="2.1"/>
	<g>
		<path d="M20.1,113.1v23.6h-4.1v-23.6H20.1z"/>
		<path d="M40.5,130.9h-0.1L33,119.9v16.8h-4.1v-23.6h4.4l7.2,11.2l7.2-11.2h4.4v23.6h-4.1v-16.9L40.5,130.9z"/>
		<path d="M83.2,136.7h-4.4l-2.4-5.7H65.3l-2.4,5.7h-4.2L69,113h3.8L83.2,136.7z M70.9,117.9l-4,9.4h8.1L70.9,117.9z"/>
		<path d="M99.5,137.1c-7.4,0-12.2-5.3-12.2-12.2c0-6.6,5.1-12.2,12.2-12.2c4.1,0,6.6,1.1,9.1,3.2l-2.6,3.1
			c-1.8-1.5-3.6-2.5-6.6-2.5c-4.3,0-7.6,3.8-7.6,8.4c0,4.9,3.2,8.5,8,8.5c2.2,0,4.2-0.7,5.7-1.8v-4.4h-6v-3.6h10v9.9
			C107,135.4,103.7,137.1,99.5,137.1z"/>
		<path d="M121.6,113.1v23.6h-4.1v-23.6H121.6z"/>
		<path d="M146.9,113.1h4.1v23.6h-3.5l-13-16.8v16.8h-4.1v-23.6h3.8l12.6,16.3V113.1z"/>
		<path d="M170.7,137.1c-7.4,0-12.2-5.3-12.2-12.2c0-6.6,5.1-12.2,12.2-12.2c4.1,0,6.6,1.1,9.1,3.2l-2.6,3.1
			c-1.8-1.5-3.6-2.5-6.6-2.5c-4.3,0-7.6,3.8-7.6,8.4c0,4.9,3.2,8.5,8,8.5c2.2,0,4.2-0.7,5.7-1.8v-4.4h-6v-3.6h10v9.9
			C178.2,135.4,174.9,137.1,170.7,137.1z"/>
		<path d="M212.3,137.1c-7.4,0-12.2-5.3-12.2-12.2c0-6.6,5.1-12.2,12.2-12.2c4.1,0,6.6,1.1,9.1,3.2l-2.6,3.1
			c-1.8-1.5-3.6-2.5-6.6-2.5c-4.3,0-7.6,3.8-7.6,8.4c0,4.9,3.2,8.5,8,8.5c2.2,0,4.2-0.7,5.7-1.8v-4.4h-6v-3.6h10v9.9
			C219.8,135.4,216.4,137.1,212.3,137.1z"/>
		<path d="M245.1,136.7l-5.8-8.2h-5.2v8.2H230v-23.6h10.5c5.4,0,8.8,2.9,8.8,7.5c0,3.9-2.3,6.3-5.6,7.2l6.4,8.9H245.1z M240.2,116.9
			h-6v7.9h6.1c3,0,4.9-1.6,4.9-4C245,118.3,243.2,116.9,240.2,116.9z"/>
		<path d="M268.1,137.1c-7.2,0-12.3-5.5-12.3-12.2s5.1-12.2,12.4-12.2s12.3,5.5,12.3,12.2C280.5,131.6,275.4,137.1,268.1,137.1z
			 M268.1,116.5c-4.7,0-8,3.7-8,8.4c0,4.6,3.3,8.4,8,8.4c4.7,0,8-3.7,8-8.4S272.8,116.5,268.1,116.5z"/>
		<path d="M307.8,126.5c0,7-4,10.6-10.1,10.6c-6.1,0-10-3.5-10-10.4v-13.6h4.1v13.4c0,4.4,2.3,6.7,6,6.7c3.7,0,5.9-2.2,5.9-6.6
			v-13.6h4.1V126.5z"/>
		<path d="M324.9,129.1h-4.7v7.6H316v-23.6h9.3c5.5,0,9,3.1,9,7.9C334.3,126.4,330.1,129.1,324.9,129.1z M325,116.9h-4.8v8.5h4.8
			c3.1,0,5.1-1.7,5.1-4.2C330.1,118.4,328.1,116.9,325,116.9z"/>
	</g>
	<path d="M63.7,71.8c-0.4,1.6-0.7,3.1-0.9,4.7c-5.9,3-13.4,4.5-22.4,4.5c-6.4,0-12-0.9-17-2.7c-5-1.8-9.2-4.3-12.7-7.6
		c-3.5-3.2-6.1-7.1-7.9-11.6C0.9,54.7,0,49.9,0,44.7c0-7.6,1.2-14,3.6-19.3c2.4-5.3,5.5-9.6,9.5-12.9c4-3.3,8.6-5.7,13.9-7.3
		c5.3-1.5,10.8-2.3,16.5-2.3c1.9,0,3.9,0.1,6,0.4c2.1,0.3,4.2,0.7,6.1,1.2c2,0.5,3.9,1,5.6,1.7c1.8,0.7,3.3,1.4,4.5,2.1
		c-0.7,1.8-1.3,3.7-1.7,5.5c-0.4,1.9-0.7,3.7-0.8,5.6h-1.5c-2.8-3.5-5.6-6-8.5-7.5c-2.9-1.5-6.4-2.2-10.3-2.2c-2.9,0-5.9,0.7-8.8,2
		c-3,1.3-5.6,3.3-8.1,6c-2.4,2.7-4.4,6.2-5.9,10.4c-1.5,4.2-2.2,9.2-2.2,15.1c0,5.6,0.8,10.4,2.3,14.4c1.5,4,3.5,7.2,6,9.8
		c2.4,2.5,5.2,4.4,8.3,5.5c3.1,1.2,6.2,1.8,9.4,1.8c1.8,0,3.5-0.2,5.4-0.6c1.8-0.4,3.6-0.9,5.4-1.6c1.8-0.7,3.4-1.6,5-2.6
		c1.6-1,2.9-2.2,4.1-3.4l1.4,0.9C64.6,68.7,64.1,70.3,63.7,71.8"/>
	<path d="M85.2,18.5c-0.1-4.7-0.4-9.4-0.7-14.2c1.2,0.1,2.6,0.3,4.1,0.4c1.5,0.1,3.1,0.2,4.9,0.2c1.8,0,3.5-0.1,4.9-0.2
		c1.5-0.1,2.8-0.2,4.1-0.4c-0.3,4.7-0.5,9.5-0.7,14.2c-0.1,4.7-0.2,10.1-0.2,16.2v14.9c0,4.2,0,8.2,0.1,12c0,3.9,0.1,7.2,0.2,10.1
		c4.2,0,8.3-0.1,12.5-0.3c4.2-0.2,8.4-0.6,12.6-1.1c-0.1,0.8-0.3,1.5-0.3,2.2c-0.1,0.7-0.1,1.6-0.1,2.7c0,1.2,0,2.1,0.1,2.7
		c0.1,0.7,0.2,1.2,0.3,1.6c-2-0.1-4.4-0.1-7.3-0.2c-2.9,0-6.9-0.1-11.9-0.1H96.9h-6.5c-1.6,0-2.9,0-3.7,0.1c-0.8,0-1.6,0.1-2.1,0.2
		c0.3-4.5,0.5-9.2,0.7-13.9c0.1-4.7,0.2-10.1,0.2-16.2V34.7C85.4,28.6,85.3,23.2,85.2,18.5"/>
	<path d="M143.7,26.9c2-4.7,4.8-8.9,8.5-12.5c3.7-3.6,8.1-6.4,13.3-8.4c5.2-2,11-3.1,17.3-3.1c5.8,0,11.3,0.8,16.3,2.4
		c5,1.6,9.4,4,13.1,7.2c3.7,3.2,6.7,7.3,8.8,12.2c2.2,4.9,3.2,10.7,3.2,17.3c0,5.5-1,10.6-3.1,15.3c-2.1,4.7-5,8.9-8.7,12.4
		c-3.7,3.5-8.1,6.3-13.2,8.3c-5.1,2-10.7,3-16.9,3c-5.8,0-11.2-0.7-16.3-2.1c-5.1-1.4-9.5-3.7-13.3-6.9c-3.8-3.2-6.7-7.2-8.9-12.2
		c-2.2-4.9-3.3-10.8-3.3-17.7C140.7,36.7,141.7,31.6,143.7,26.9 M204.5,26.9c-1.2-3.8-2.8-7-4.9-9.6c-2.1-2.6-4.6-4.7-7.6-6.1
		c-3-1.4-6.2-2.1-9.7-2.1c-3.7,0-7.1,0.9-10,2.7c-3,1.8-5.5,4.2-7.5,7.3c-2,3.1-3.6,6.7-4.7,10.8c-1.1,4.1-1.6,8.5-1.6,13.2
		c0,5.8,0.6,10.8,1.9,14.8c1.2,4,2.9,7.3,5,9.7c2.1,2.4,4.6,4.2,7.3,5.3c2.8,1.1,5.7,1.7,8.8,1.7c3.3,0,6.4-0.7,9.4-2.1
		c3-1.4,5.6-3.5,7.8-6.4c2.2-2.8,4-6.5,5.4-10.8c1.3-4.4,2-9.6,2-15.6C206.3,34.9,205.7,30.7,204.5,26.9"/>
	<path d="M282.8,31.3c3.6-9.4,6.8-18.4,9.6-27c1.8,0.4,3.4,0.5,4.8,0.5c1.4,0,3-0.2,4.8-0.5c-1.8,4.3-4,9.5-6.6,15.6
		c-2.6,6.1-5.2,12.5-8,19.3c-2.8,6.8-5.5,13.7-8.2,20.7c-2.7,7-5.1,13.6-7.2,19.7c-1.5-0.2-3.1-0.2-4.8-0.2c-1.8,0-3.4,0.1-4.8,0.2
		c-1.1-2.9-2.4-6.5-4-10.6c-1.6-4.2-3.3-8.6-5-13.3c-1.8-4.7-3.7-9.5-5.6-14.4c-2-4.9-3.9-9.6-5.7-14.2c-1.8-4.6-3.5-8.8-5.1-12.8
		c-1.6-3.9-3-7.3-4.2-10.1c1.7,0.1,3.3,0.3,5,0.4c1.6,0.1,3.3,0.2,4.9,0.2c1.6,0,3.2-0.1,4.8-0.2c1.6-0.1,3.2-0.2,4.8-0.4
		c1.2,4.1,2.6,8.4,4.2,12.9c1.6,4.5,3.2,9.1,4.9,13.9c1.7,4.7,3.4,9.4,5.2,14.2c1.8,4.7,3.5,9.4,5.2,14
		C275.6,50,279.2,40.7,282.8,31.3"/>
	<path d="M318.4,18.5c-0.1-4.7-0.3-9.4-0.6-14.2c3.3,0.1,6.5,0.2,9.7,0.3c3.2,0.1,6.5,0.2,9.8,0.2c5.4,0,10.2-0.1,14.4-0.2
		c4.2-0.1,7-0.2,8.5-0.4c-0.3,1.2-0.4,2.7-0.4,4.6c0,1.2,0,2.1,0.1,2.7c0.1,0.7,0.2,1.4,0.3,2.2c-2.1-0.2-4.4-0.3-6.9-0.4
		c-2.5-0.1-5-0.3-7.3-0.4c-2.4-0.1-4.5-0.3-6.4-0.3c-1.9-0.1-3.3-0.1-4.1-0.1c-0.3,4-0.5,8-0.5,11.9c0,3.9-0.1,7.9-0.1,11.9
		c4.7-0.1,9-0.2,12.9-0.3c3.8-0.1,7.8-0.3,12-0.5c-0.2,1.2-0.4,2.2-0.4,2.8c-0.1,0.7-0.1,1.4-0.1,2.1c0,0.6,0.1,1.2,0.2,1.8
		c0.1,0.6,0.2,1.5,0.4,2.7c-8.3-0.7-16.6-1-24.9-1c0,2.3,0,4.7-0.1,7c0,2.3-0.1,4.7-0.1,7c0,4.7,0.1,9.3,0.3,13.7
		c4.2,0,8.3-0.1,12.5-0.3c4.2-0.2,8.4-0.6,12.6-1.1c-0.1,0.8-0.3,1.5-0.3,2.2c-0.1,0.7-0.1,1.6-0.1,2.7c0,1.2,0,2.1,0.1,2.7
		c0.1,0.7,0.2,1.2,0.3,1.6c-2-0.1-4.4-0.1-7.3-0.2c-2.9,0-6.9-0.1-11.9-0.1h-10.8h-6.5c-1.6,0-2.9,0-3.7,0.1c-0.8,0-1.5,0.1-2.1,0.2
		c0.3-4.5,0.4-9.2,0.6-13.9c0.1-4.7,0.2-10.1,0.2-16.2V34.7C318.6,28.6,318.5,23.2,318.4,18.5"/>
	<path d="M397.1,45.1v4.5c0,6.1,0.1,11.4,0.2,16.2c0.1,4.7,0.4,9.3,0.7,13.9c-1.2-0.2-2.6-0.2-4.1-0.2H389h-4.9
		c-1.5,0-2.8,0.1-4.1,0.2c0.3-4.5,0.5-9.1,0.7-13.9c0.1-4.7,0.2-10.1,0.2-16.2V34.7c0-6.1-0.1-11.4-0.2-16.2
		c-0.2-4.7-0.4-9.4-0.7-14.2c1.2,0.1,2.6,0.3,4.1,0.4c1.5,0.1,3.1,0.2,4.9,0.2c2,0,4.2-0.1,6.7-0.3c2.5-0.2,5.6-0.3,9.4-0.3
		c2.8,0,5.2,0.1,7.1,0.2c2,0.1,3.7,0.4,5.1,0.7c1.4,0.3,2.7,0.7,3.7,1.2c1.1,0.5,2.1,1,3,1.7c2.2,1.6,3.9,3.6,5.2,6
		c1.3,2.4,1.9,5.2,1.9,8.5c0,5.3-1.5,9.7-4.4,13c-2.9,3.4-7.1,5.7-12.6,7.1c3.5,6.2,7.3,12.4,11.3,18.6c4,6.2,8,12.3,12.1,18.4
		c-1.7-0.2-3.3-0.2-4.9-0.2h-4.9h-5c-1.7,0-3.3,0.1-5,0.2l-19.6-34.5H397.1z M413.4,17.2c-0.7-1.9-1.7-3.3-3-4.3
		c-1.4-1-3.1-1.6-5.3-1.9c-2.2-0.3-4.7-0.4-7.7-0.4c-0.2,9.9-0.3,19.9-0.3,29.8c0.4,0.1,0.9,0.1,1.3,0.2c0.4,0,0.8,0.1,1.2,0.1
		c4.8,0,8.5-1.3,11.1-3.9c2.6-2.6,3.8-6.5,3.8-11.8C414.4,21.7,414.1,19.1,413.4,17.2"/>
</g>
</svg>
